<?xml version="1.0" standalone="no"?>
<!DOCTYPE svg PUBLIC "-//W3C//DTD SVG 20010904//EN"
 "http://www.w3.org/TR/2001/REC-SVG-20010904/DTD/svg10.dtd">
<svg version="1.0" xmlns="http://www.w3.org/2000/svg"
 width="1083.000000pt" height="1083.000000pt" viewBox="0 0 1083.000000 1083.000000"
 preserveAspectRatio="xMidYMid meet">
<metadata>
Created by potrace 1.11, written by Peter Selinger 2001-2013
</metadata>
<g transform="translate(0.000000,1083.000000) scale(0.100000,-0.100000)"
fill="#000000" stroke="none">
<path d="M2586 7134 c-92 -22 -183 -73 -253 -139 l-63 -60 0 86 c0 48 -3 94
-6 103 -5 14 -38 16 -265 16 l-259 0 0 -1270 0 -1270 263 2 262 3 3 518 2 519
39 -47 c79 -96 193 -164 323 -191 86 -19 231 -14 323 11 138 37 280 131 381
253 63 76 145 236 169 329 28 112 39 262 26 379 -15 144 -34 211 -91 329 -104
215 -287 372 -496 425 -93 24 -268 26 -358 4z m194 -483 c148 -77 214 -197
213 -391 -1 -156 -47 -256 -152 -331 -73 -52 -145 -73 -236 -67 -131 9 -259
102 -306 226 -27 72 -37 226 -19 303 32 137 123 239 250 280 14 5 66 7 115 6
71 -3 100 -8 135 -26z"/>
<path d="M6395 7130 c-315 -68 -518 -317 -475 -585 15 -97 51 -164 118 -227
100 -92 152 -111 575 -212 134 -32 200 -60 232 -98 87 -103 -74 -225 -249
-188 -69 14 -109 46 -132 105 l-17 45 -268 0 c-236 0 -269 -2 -269 -15 0 -9 7
-51 16 -93 47 -228 222 -387 497 -450 112 -25 377 -22 482 6 234 64 413 218
460 397 41 161 -8 345 -120 442 -93 81 -260 142 -569 207 -205 44 -273 94
-244 182 19 55 62 77 162 82 138 7 216 -31 231 -111 l7 -37 269 0 269 0 0 38
c-1 165 -138 360 -313 445 -129 63 -207 79 -402 83 -140 3 -186 0 -260 -16z"/>
<path d="M3417 7133 c-3 -5 102 -368 233 -808 130 -441 245 -826 254 -858 l17
-57 284 0 c157 0 285 2 285 4 0 9 230 969 233 972 2 2 55 -216 118 -484 l114
-487 285 0 285 0 252 850 c139 468 251 856 248 863 -3 9 -61 12 -244 12 -132
0 -242 -4 -245 -9 -3 -5 -62 -265 -131 -577 -69 -313 -127 -573 -129 -579 -5
-13 0 -33 -136 593 -66 304 -122 558 -125 563 -10 15 -552 12 -557 -3 -3 -7
-61 -270 -129 -585 -68 -314 -127 -566 -130 -560 -4 7 -62 264 -129 572 -67
308 -127 566 -133 573 -7 9 -72 12 -263 12 -139 0 -255 -3 -257 -7z"/>
<path d="M7470 5230 l0 -150 813 2 812 3 0 145 0 145 -812 3 -813 2 0 -150z"/>
<path d="M7950 4760 l0 -109 -62 -3 -63 -3 0 -50 0 -50 63 -3 62 -3 0 -328 c0
-219 4 -339 11 -362 34 -100 99 -134 259 -134 l105 0 3 51 3 52 -101 4 c-156
6 -144 -23 -148 383 l-3 335 126 0 125 0 0 55 0 55 -125 0 -125 0 0 110 0 110
-65 0 -65 0 0 -110z"/>
<path d="M4313 4659 c-110 -19 -197 -78 -239 -165 -23 -48 -26 -63 -22 -124 6
-79 30 -124 88 -165 30 -21 163 -64 328 -105 24 -6 60 -26 79 -44 31 -28 37
-40 40 -87 5 -69 -20 -112 -80 -139 -50 -23 -162 -27 -210 -6 -46 19 -95 79
-108 131 l-11 45 -66 0 -65 0 6 -45 c14 -97 80 -185 172 -227 43 -20 66 -23
165 -23 105 0 120 2 176 28 109 51 157 123 157 234 0 43 -7 75 -23 108 -39 80
-88 106 -308 160 -126 31 -168 54 -195 105 -46 89 16 188 131 210 126 23 222
-37 241 -150 l6 -35 65 0 65 0 -3 45 c-6 100 -87 204 -181 234 -63 20 -145 26
-208 15z"/>
<path d="M5120 4659 c-69 -12 -152 -50 -207 -95 -202 -166 -215 -546 -26 -741
90 -92 195 -129 348 -121 115 6 200 42 274 116 40 40 101 134 101 157 0 3 -30
5 -68 5 -67 0 -68 0 -87 -36 -49 -91 -149 -139 -274 -132 -87 5 -163 39 -208
93 -36 42 -72 122 -79 178 l-7 47 375 0 374 0 11 -66 c17 -99 62 -181 137
-252 81 -76 148 -103 267 -110 144 -7 248 26 330 108 49 49 93 118 104 163 l7
27 -69 0 -69 0 -13 -36 c-20 -55 -89 -118 -151 -139 -69 -23 -188 -17 -245 12
-122 64 -185 205 -172 387 13 186 98 297 249 325 58 10 136 3 190 -18 43 -16
104 -77 127 -126 l21 -45 65 0 c76 0 78 4 40 84 -59 125 -163 198 -309 216
-151 19 -291 -24 -386 -119 -51 -51 -105 -147 -116 -209 -5 -24 -9 -30 -15
-20 -5 7 -9 22 -9 33 0 33 -56 140 -95 183 -94 105 -261 157 -415 131z m210
-131 c92 -39 159 -132 174 -240 l7 -48 -312 0 -311 0 7 48 c30 208 240 324
435 240z"/>
<path d="M6902 4659 c-70 -12 -120 -39 -165 -88 l-37 -41 0 60 0 60 -65 0 -65
0 2 -467 3 -468 60 0 60 0 5 325 c5 317 6 326 29 373 36 73 117 116 219 117
l33 0 -3 67 c-2 36 -7 67 -13 68 -5 2 -34 -1 -63 -6z"/>
<path d="M7340 4659 c-84 -14 -191 -71 -244 -130 -89 -99 -133 -237 -122 -387
14 -196 103 -335 262 -409 55 -26 68 -28 184 -28 120 0 128 1 192 32 80 38
156 109 192 181 14 28 26 54 26 57 0 3 -30 5 -68 5 -67 0 -68 0 -87 -36 -49
-91 -149 -139 -275 -132 -96 6 -167 42 -222 113 -34 45 -68 136 -68 183 l0 22
373 2 372 3 3 75 c7 164 -55 298 -175 381 -84 58 -229 87 -343 68z m210 -131
c53 -22 114 -79 140 -128 15 -30 40 -123 40 -150 0 -6 -121 -10 -311 -10
l-312 0 7 46 c28 207 241 326 436 242z"/>
<path d="M8590 4659 c-156 -27 -260 -136 -260 -274 0 -77 30 -138 86 -177 34
-24 154 -63 332 -108 24 -6 60 -26 79 -44 31 -28 37 -40 40 -87 5 -70 -20
-112 -83 -141 -67 -29 -186 -23 -237 12 -39 27 -71 76 -82 128 l-7 32 -64 0
c-64 0 -64 0 -64 -28 0 -89 80 -202 172 -242 70 -31 212 -39 289 -17 74 22
143 68 176 118 23 34 28 56 31 115 5 91 -8 132 -60 183 -43 44 -100 66 -284
110 -105 26 -146 48 -174 93 -53 88 8 195 125 217 128 24 219 -31 243 -146 l8
-38 64 0 65 0 -3 35 c-8 110 -83 213 -178 243 -66 21 -148 27 -214 16z"/>
</g>
</svg>
